<?xml version="1.0" encoding="UTF-8"?>
<svg width="202px" height="40px" viewBox="0 0 202 40" version="1.1" xmlns="http://www.w3.org/2000/svg" xmlns:xlink="http://www.w3.org/1999/xlink">
    <!-- Generator: Sketch 61.2 (89653) - https://sketch.com -->
    <title>14 Logos/2 ConnectMiles/WhiteGold</title>
    <desc>Created with Sketch.</desc>
    <g id="14-Logos/2-ConnectMiles/WhiteGold" stroke="none" stroke-width="1" fill="none" fill-rule="evenodd">
        <path d="M178.677,23.8938 C183.587,23.8938 186.318,26.1598 186.318,31.2718 L186.318,31.2718 L186.318,32.7048 L174.352,32.7048 C174.636,34.5368 175.56,35.8578 179.024,35.8578 C181.682,35.8578 184.911,35.2638 185.307,35.2198 C185.223,35.7618 184.983,37.3438 184.873,38.0688 C184.291,38.1878 181.746,38.6958 179.024,38.6958 C171.572,38.6958 170.025,35.3728 170.025,31.2718 C170.025,27.2188 171.605,23.8938 178.677,23.8938 Z M194.8633,23.8294 C195.8203,23.8294 196.7743,23.8934 197.7403,24.0224 C198.6833,24.1604 199.6083,24.3544 200.5043,24.6174 L200.5043,27.8474 C199.6943,27.4074 198.8443,27.0704 197.9663,26.8504 C197.0783,26.6294 196.1863,26.5134 195.3033,26.5134 C194.3293,26.5134 193.5753,26.6374 193.0613,26.8764 C192.5683,27.1134 192.3163,27.4704 192.3163,27.9484 C192.3163,28.6184 193.3933,29.1624 195.5423,29.5874 L195.7043,29.6244 L196.9863,29.8634 C198.6013,30.1894 199.7803,30.7074 200.5253,31.4144 C201.2803,32.1334 201.6463,33.0934 201.6463,34.2954 C201.6463,35.7614 201.0793,36.8634 199.9333,37.5854 C198.8003,38.3154 197.0783,38.6794 194.7803,38.6794 C193.7663,38.6794 192.7143,38.6074 191.6473,38.4624 C190.5873,38.3094 189.4983,38.1004 188.4093,37.7984 L188.4093,34.5434 C189.3813,35.0214 190.3753,35.3724 191.3883,35.6184 C192.3983,35.8714 193.3763,35.9994 194.3293,35.9994 C195.3563,35.9994 196.1433,35.8614 196.6803,35.6114 C197.2063,35.3504 197.4813,34.9844 197.4813,34.4954 C197.4813,34.0344 197.2863,33.6724 196.9143,33.4094 C196.5363,33.1504 195.6283,32.9014 194.2163,32.6094 L192.9883,32.3734 C191.3013,32.0684 190.0673,31.5604 189.2963,30.8824 C188.5283,30.1934 188.1333,29.2924 188.1333,28.1474 C188.1333,26.7764 188.7163,25.7224 189.8943,24.9824 C191.0803,24.2164 192.7293,23.8294 194.8633,23.8294 Z M167.936,19.6914 L167.936,36.1374 C167.936,37.1834 168.318,38.1574 168.379,38.3984 L168.379,38.3984 L164.218,38.3984 C164.13,38.1534 163.78,37.1364 163.78,36.1374 L163.78,36.1374 L163.78,19.6914 L167.936,19.6914 Z M160.6693,24.1332 L160.6693,36.1372 C160.6693,37.1532 161.0413,38.1382 161.1133,38.3982 L161.1133,38.3982 L156.9723,38.3982 C156.9123,38.2572 156.5233,37.1942 156.5233,36.1372 L156.5233,36.1372 L156.5233,24.1332 L160.6693,24.1332 Z M130.9661,19.6915 L140.0321,34.0215 L149.2191,19.6915 L153.4191,19.6915 L153.4191,38.3855 L149.2421,38.3855 L149.2421,27.3195 L142.1581,38.3855 L138.1361,38.3855 L130.9801,27.2905 L130.9801,38.3855 L126.8241,38.3855 L126.8241,19.6915 L130.9661,19.6915 Z M178.677,26.7258 C175.394,26.7258 174.595,28.0778 174.352,29.8308 L174.352,29.8308 L182.089,29.8308 C181.951,28.2768 181.09,26.7258 178.677,26.7258 Z M158.6253,19.6582 C159.5193,19.6582 160.1243,19.7882 160.4553,20.0302 C160.7693,20.2732 160.9413,20.7182 160.9413,21.3352 C160.9413,21.9842 160.7623,22.4262 160.4373,22.6742 C160.0983,22.9172 159.4863,23.0392 158.5883,23.0392 C157.6713,23.0392 157.0633,22.9172 156.7423,22.6822 C156.4293,22.4472 156.2753,22.0262 156.2753,21.3982 C156.2753,20.7472 156.4403,20.2982 156.7643,20.0462 C157.0883,19.7912 157.7083,19.6582 158.6253,19.6582 Z M129.9004,1.7763 C135.9994,3.3983 139.6254,7.4393 140.4044,13.4653 C140.4044,13.4653 140.803897,15.3624395 140.088619,19.3538319 L140.0264,19.6839761 L140.029081,19.6655235 C140.065659,19.2995094 140.435778,15.1100778 138.5734,11.8803 C136.7064,8.6393 133.4664,6.2393 129.0504,5.0233 C124.7274,3.8163 119.4284,3.7353 113.7324,4.7853 C107.8644,5.8613 101.7064,8.1163 95.9314,11.3203 C91.5774,13.7203 87.5984,16.5643 84.1884,19.6913 C84.1884,19.6913 92.9334,9.9703 104.8574,5.0993 C114.2054,1.2823 123.3134,0.0243 129.9004,1.7763 Z" id="Combined-Shape" fill="#CB9938"></path>
        <path d="M104.6374,23.8834 C107.9064,23.8834 110.4824,24.7994 111.9464,26.7464 L111.9464,26.7464 L108.3124,28.1324 C107.6384,27.2494 106.4824,26.7484 104.6374,26.7484 C101.1584,26.7484 100.1264,28.4714 100.1264,31.2874 C100.1264,34.1504 101.1584,35.8784 104.6374,35.8784 C106.6234,35.8784 107.8064,35.3064 108.4594,34.2844 L108.4594,34.2844 L112.0534,35.6994 C110.6114,37.7624 107.9924,38.7084 104.6374,38.7084 C99.4394,38.7084 95.9734,36.4554 95.9734,31.2874 C95.9734,26.1704 99.4394,23.8834 104.6374,23.8834 Z M11.3193,19.1051899 C16.1953,19.1012 19.2263,20.6452 20.9063,23.0702 L16.5513,24.7602 C15.6083,23.4232 14.0323,22.5482 11.3743,22.5332 L11.2633,22.5332 C8.6613,22.5452 7.1033,23.3682 6.1453,24.6482 C5.3203,25.7582 4.8623,27.1922 4.8623,28.8132 L4.8623,29.0792 L4.8573,29.0792 C4.8773,30.6292 5.3403,32.1222 6.1453,33.2032 C7.1033,34.4712 8.6613,35.3082 11.2633,35.3182 L11.3743,35.3182 C13.9823,35.3082 15.5553,34.4532 16.5023,33.1642 L20.9063,34.8482 C19.2193,37.2452 16.1513,38.7082 11.3403,38.7082 L11.3193,38.7082 C7.0373,38.7082 4.1693,37.5812 2.4083,35.6302 C0.8023,33.8832 -0.0087,31.5552 0.000225910502,28.9882 L0.000225910502,28.8132 C-0.0087,26.2922 0.8043,23.9612 2.4043,22.2242 C4.1663,20.2852 7.0363,19.1012 11.3193,19.1051899 Z M30.6093,23.8861 C35.7973,23.8861 39.2523,26.1701 39.2523,31.2871 C39.2523,36.4551 35.7973,38.7081 30.6093,38.7081 C25.4113,38.7081 21.9503,36.4551 21.9503,31.2871 C21.9503,26.1701 25.4113,23.8861 30.6093,23.8861 Z M86.2718,23.8745 C91.1808,23.8745 93.9158,26.1315 93.9158,31.2435 L93.9158,31.2435 L93.9158,32.6815 L81.9458,32.6815 C82.2228,34.5075 83.1548,35.8325 86.6138,35.8325 C89.2748,35.8325 92.5028,35.2375 92.8958,35.1965 C92.8168,35.7385 92.5768,37.3175 92.4648,38.0395 C91.8848,38.1575 89.3408,38.6695 86.6138,38.6695 C79.1678,38.6695 77.6238,35.3455 77.6238,31.2435 C77.6238,27.1865 79.1958,23.8745 86.2718,23.8745 Z M120.3534,19.694 L120.3534,24.112 L124.0334,24.112 L124.0334,27.162 L120.3534,27.162 L120.3534,32.867 C120.3534,34.881 120.6564,35.429 122.2394,35.429 C122.7304,35.429 123.2134,35.368 123.7014,35.335 L123.7014,38.021 C123.1834,38.264 121.1854,38.476 120.5444,38.476 C116.9774,38.476 116.2124,36.618 116.2124,33.294 L116.2124,27.162 L113.1394,27.162 L113.1394,24.112 L116.2124,24.112 L116.2124,19.694 L120.3534,19.694 Z M49.9775,23.8517 C55.5205,23.8517 56.8865,25.8547 56.8865,30.0977 L56.8865,30.0977 L56.8865,38.3987 L52.7375,38.3987 L52.7375,30.0977 C52.7375,27.2837 51.6885,26.7157 49.9775,26.7157 C46.8605,26.7157 45.4825,27.8667 45.4825,30.0977 L45.4825,30.0977 L45.4825,38.3987 L41.3235,38.3987 L41.3235,26.4227 C41.3235,25.5887 41.0415,24.6477 40.8765,24.1387 L40.8765,24.1387 L45.0875,24.1387 L45.3495,25.4967 C45.3495,25.4967 46.8605,23.8517 49.9775,23.8517 Z M68.6557,23.8517 C74.2027,23.8517 75.5647,25.8547 75.5647,30.0977 L75.5647,30.0977 L75.5647,38.3987 L71.4187,38.3987 L71.4187,30.0977 C71.4187,27.2837 70.3707,26.7157 68.6557,26.7157 C65.5357,26.7157 64.1647,27.8667 64.1647,30.0977 L64.1647,30.0977 L64.1647,38.3987 L59.9997,38.3987 L59.9997,26.4227 C59.9997,25.5887 59.7187,24.6477 59.5537,24.1387 L59.5537,24.1387 L63.7657,24.1387 L64.0217,25.4967 C64.0217,25.4967 65.5357,23.8517 68.6557,23.8517 Z M30.6093,26.7481 C27.1273,26.7481 26.1003,28.4711 26.1003,31.2871 C26.1003,34.1501 27.1273,35.8781 30.6093,35.8781 C34.0703,35.8781 35.1033,34.1501 35.1033,31.2871 C35.1033,28.4711 34.0703,26.7481 30.6093,26.7481 Z M86.2718,26.7025 C82.9868,26.7025 82.1898,28.0485 81.9458,29.8005 L81.9458,29.8005 L89.6788,29.8005 C89.5408,28.2425 88.6828,26.7025 86.2718,26.7025 Z" id="Combined-Shape" fill="#FFFFFF"></path>
    </g>
</svg>